<svg width="949.139990234375px" height="150.839990234375px" xmlns="http://www.w3.org/2000/svg" viewBox="-224.5699951171875 -0.41999511718749716 949.139990234375 150.839990234375" style="background: none;" preserveAspectRatio="xMidYMid"><defs>
  <filter id="editing-scratch" x="-100%" y="-100%" width="300%" height="300%">
    <!-- COLOR -->
    <feFlood flood-color="#ddd" flood-opacity="0.75" result="COLOR-blu"></feFlood>
    <feFlood flood-color="#666" flood-opacity="0.4" result="COLOR-red"></feFlood>
    <!-- COLOR END -->

    <!-- Texture -->
    <feTurbulence baseFrequency=".05" type="fractalNoise" numOctaves="3" seed="0" result="Texture_10"></feTurbulence>
    <feColorMatrix type="matrix" values="0 0 0 0 0,
    0 0 0 0 0,
    0 0 0 0 0,
    0 0 0 -2.1 1.1" in="Texture_10" result="Texture_20"></feColorMatrix>

    <feColorMatrix result="Texture_30" type="matrix" values="0 0 0 0 0,
    0 0 0 0 0,
    0 0 0 0 0,
    0 0 0 -1.7 1.8" in="Texture_10"></feColorMatrix>
    <!-- Texture -->

    <!-- FILL -->
    <feOffset dx="-3" dy="4" in="SourceAlpha" result="FILL_10"></feOffset>
    <feDisplacementMap scale="17" in="FILL_10" in2="Texture_10" result="FILL_20"></feDisplacementMap>
    <feComposite operator="in" in="Texture_30" in2="FILL_20" result="FILL_40"></feComposite>
    <feComposite operator="in" in="COLOR-blu" in2="FILL_40" result="FILL_50"></feComposite>
    <!-- FILL END-->

    <!-- OUTLINE -->
    <feMorphology operator="dilate" radius="3" in="SourceGraphic" result="OUTLINE_10"></feMorphology>
    <feComposite operator="out" in="OUTLINE_10" in2="SourceGraphic" result="OUTLINE_20"></feComposite>
    <feDisplacementMap scale="7" in="OUTLINE_20" in2="Texture_10" result="OUTLINE_30"></feDisplacementMap>
    <feComposite operator="arithmetic" k2="-1" k3="1" in="Texture_20" in2="OUTLINE_30" result="OUTLINE_40"></feComposite>
    <!-- OUTLINE END-->

    <!-- BEVEL OUTLINE -->
    <feConvolveMatrix order="8,8" divisor="1" kernelMatrix="1 0 0 0 0 0 0 0 0 1 0 0 0 0 0 0 0 0 1 0 0 0 0 0 0 0 0 1 0 0 0 0 0 0 0 0 1 0 0 0 0 0 0 0 0 1 0 0 0 0 0 0 0 0 1 0 0 0 0 0 0 0 0 1 " in="SourceGraphic" result="BEVEL_10"></feConvolveMatrix>
    <feMorphology operator="dilate" radius="2" in="BEVEL_10" result="BEVEL_20"></feMorphology>
    <feComposite operator="out" in="BEVEL_20" in2="BEVEL_10" result="BEVEL_30"></feComposite>
    <feDisplacementMap scale="7" in="BEVEL_30" in2="Texture_10" result="BEVEL_40"></feDisplacementMap>
    <feComposite operator="arithmetic" k2="-1" k3="1" in="Texture_20" in2="BEVEL_40" result="BEVEL_50"></feComposite>
    <feOffset dx="-7" dy="-7" in="BEVEL_50" result="BEVEL_60"></feOffset>
    <feComposite operator="out" in="BEVEL_60" in2="OUTLINE_10" result="BEVEL_70"></feComposite>
    <!-- BEVEL OUTLINE END -->

    <!-- BEVEL FILL -->
    <feOffset dx="-9" dy="-9" in="BEVEL_10" result="BEVEL-FILL_10"></feOffset>
    <feComposite operator="out" in="BEVEL-FILL_10" in2="OUTLINE_10" result="BEVEL-FILL_20"></feComposite>
    <feDisplacementMap scale="17" in="BEVEL-FILL_20" in2="Texture_10" result="BEVEL-FILL_30"></feDisplacementMap>
    <feComposite operator="in" in="COLOR-red" in2="BEVEL-FILL_30" result="BEVEL-FILL_50"></feComposite> <!-- -->
    <!-- BEVEL FILL END-->

    <feMerge result="merge2">
     <feMergeNode in="BEVEL-FILL_50"></feMergeNode>
     <feMergeNode in="BEVEL_70"></feMergeNode>
     <feMergeNode in="FILL_50"></feMergeNode>
      <feMergeNode in="OUTLINE_40"></feMergeNode>
    </feMerge>
  </filter>
</defs>
<g filter="url(#editing-scratch)"><g transform="translate(-91.3017373085022, 105)"><path d="M2.56-19.52L2.56-19.52L2.56-19.52Q2.56-34.64 10.40-44.16L10.40-44.16L10.40-44.16Q18.72-54.48 33.20-54.48L33.20-54.48L33.20-54.48Q43.68-54.48 48.96-49.40L48.96-49.40L48.96-49.40Q54.24-44.32 54.24-33.60L54.24-33.60L54.24-33.60Q54.24-17.28 45.92-7.76L45.92-7.76L45.92-7.76Q37.68 1.60 23.84 1.60L23.84 1.60L23.84 1.60Q13.04 1.60 7.80-3.80L7.80-3.80L7.80-3.80Q2.56-9.20 2.56-19.52ZM23.60-36.08L23.60-36.08L23.60-36.08Q20-21.68 20-10.32L20-10.32L20-10.32Q20-7.60 20.92-5.84L20.92-5.84L20.92-5.84Q21.84-4.08 24.28-4.08L24.28-4.08L24.28-4.08Q26.72-4.08 28.24-5.24L28.24-5.24L28.24-5.24Q29.76-6.40 30.96-9.04L30.96-9.04L30.96-9.04Q32.88-13.36 34.68-22.52L34.68-22.52L34.68-22.52Q36.48-31.68 36.64-35.48L36.64-35.48L36.64-35.48Q36.80-39.28 36.80-42.16L36.80-42.16L36.80-42.16Q36.80-45.04 35.92-46.88L35.92-46.88L35.92-46.88Q35.04-48.72 32.68-48.72L32.68-48.72L32.68-48.72Q30.32-48.72 28.72-47.28L28.72-47.28L28.72-47.28Q25.76-44.56 23.60-36.08ZM92 1.60L92 1.60L92 1.60Q82.32 1.60 82.32-5.92L82.32-5.92L82.32-5.92Q82.40-8 83.04-11.52L83.04-11.52L84.48-18.88L84.48-18.88Q86.64-29.28 86.64-31.60L86.64-31.60L86.64-31.60Q86.64-36.24 83.92-36.24L83.92-36.24L83.92-36.24Q79.36-36.24 76.96-24.32L76.96-24.32L72.24 0L56.16 1.60L64.48-40.88L77.60-42.40L76.32-34.56L76.32-34.56Q80.08-42.40 91.60-42.40L91.60-42.40L91.60-42.40Q97.20-42.40 99.56-40.04L99.56-40.04L99.56-40.04Q101.92-37.68 101.92-32.40L101.92-32.40L101.92-32.40Q101.92-27.44 99.36-15.84L99.36-15.84L99.36-15.84Q98.16-10.64 98.16-8.68L98.16-8.68L98.16-8.68Q98.16-6.72 99.24-5.60L99.24-5.60L99.24-5.60Q100.32-4.48 101.92-4.32L101.92-4.32L101.92-4.32Q101.12-1.60 98.36 0L98.36 0L98.36 0Q95.60 1.60 92 1.60ZM127.44-4.40L127.44-4.40L127.44-4.40Q124.96 1.60 117.04 1.60L117.04 1.60L117.04 1.60Q113.04 1.60 110.48-1.20L110.48-1.20L110.48-1.20Q108.40-3.52 108.40-6.16L108.40-6.16L108.40-6.16Q108.40-12.16 111.20-25.28L111.20-25.28L117.04-56L133.28-57.60L125.52-17.12L125.52-17.12Q124.16-11.20 124.16-9.12L124.16-9.12L124.16-9.12Q124.16-4.56 127.44-4.40ZM153.44-4.40L153.44-4.40L153.44-4.40Q150.96 1.60 143.04 1.60L143.04 1.60L143.04 1.60Q138.96 1.60 136.40-1.20L136.40-1.20L136.40-1.20Q134.24-3.68 134.24-6.16L134.24-6.16L134.24-6.16Q134.24-12.64 137.20-25.28L137.20-25.28L140.16-40.80L156.40-42.40L151.52-17.12L151.52-17.12Q150.16-11.20 150.16-9.12L150.16-9.12L150.16-9.12Q150.16-4.56 153.44-4.40ZM141.60-51.92L141.60-51.92L141.60-51.92Q141.60-55.04 144.20-56.72L144.20-56.72L144.20-56.72Q146.80-58.40 150.56-58.40L150.56-58.40L150.56-58.40Q154.32-58.40 156.60-56.72L156.60-56.72L156.60-56.72Q158.88-55.04 158.88-51.92L158.88-51.92L158.88-51.92Q158.88-48.80 156.36-47.20L156.36-47.20L156.36-47.20Q153.84-45.60 150.08-45.60L150.08-45.60L150.08-45.60Q146.32-45.60 143.96-47.20L143.96-47.20L143.96-47.20Q141.60-48.80 141.60-51.92ZM194.08 1.60L194.08 1.60L194.08 1.60Q184.40 1.60 184.40-5.92L184.40-5.92L184.40-5.92Q184.48-8 185.12-11.52L185.12-11.52L186.56-18.88L186.56-18.88Q188.72-29.28 188.72-31.60L188.72-31.60L188.72-31.60Q188.72-36.24 186-36.24L186-36.24L186-36.24Q181.44-36.24 179.04-24.32L179.04-24.32L174.32 0L158.24 1.60L166.56-40.88L179.68-42.40L178.40-34.56L178.40-34.56Q182.16-42.40 193.68-42.40L193.68-42.40L193.68-42.40Q199.28-42.40 201.64-40.04L201.64-40.04L201.64-40.04Q204-37.68 204-32.40L204-32.40L204-32.40Q204-27.44 201.44-15.84L201.44-15.84L201.44-15.84Q200.24-10.64 200.24-8.68L200.24-8.68L200.24-8.68Q200.24-6.72 201.32-5.60L201.32-5.60L201.32-5.60Q202.40-4.48 204-4.32L204-4.32L204-4.32Q203.20-1.60 200.44 0L200.44 0L200.44 0Q197.68 1.60 194.08 1.60ZM242.80-13.52L242.80-13.52L242.80-13.52Q244.80-12.16 244.80-9.16L244.80-9.16L244.80-9.16Q244.80-6.16 243.28-4.24L243.28-4.24L243.28-4.24Q241.76-2.32 239.28-1.04L239.28-1.04L239.28-1.04Q234.16 1.60 228.64 1.60L228.64 1.60L228.64 1.60Q223.12 1.60 219.88 0.40L219.88 0.40L219.88 0.40Q216.64-0.80 214.48-3.04L214.48-3.04L214.48-3.04Q210.24-7.28 210.24-15.04L210.24-15.04L210.24-15.04Q210.24-27.12 216.80-34.48L216.80-34.48L216.80-34.48Q223.84-42.40 236.08-42.40L236.08-42.40L236.08-42.40Q243.68-42.40 247.44-39.20L247.44-39.20L247.44-39.20Q250.24-36.80 250.24-32.88L250.24-32.88L250.24-32.88Q250.24-18.80 225.92-18.80L225.92-18.80L225.92-18.80Q225.60-16.72 225.60-14.96L225.60-14.96L225.60-14.96Q225.60-11.28 227.24-9.88L227.24-9.88L227.24-9.88Q228.88-8.48 231.92-8.48L231.92-8.48L231.92-8.48Q234.96-8.48 238.20-9.88L238.20-9.88L238.20-9.88Q241.44-11.28 242.80-13.52ZM226.48-22.24L226.48-22.24L226.48-22.24Q232.16-22.24 235.44-25.76L235.44-25.76L235.44-25.76Q238.72-29.12 238.72-34.48L238.72-34.48L238.72-34.48Q238.72-36.32 238.04-37.32L238.04-37.32L238.04-37.32Q237.36-38.32 236-38.32L236-38.32L236-38.32Q234.64-38.32 233.48-37.80L233.48-37.80L233.48-37.80Q232.32-37.28 231.12-35.52L231.12-35.52L231.12-35.52Q228.16-31.52 226.48-22.24ZM311.20-16.56L311.20-16.56L311.20-16.56Q313.28-15.04 313.28-11.80L313.28-11.80L313.28-11.80Q313.28-8.56 311.88-6.28L311.88-6.28L311.88-6.28Q310.48-4 307.76-2.24L307.76-2.24L307.76-2.24Q301.92 1.52 291.72 1.52L291.72 1.52L291.72 1.52Q281.52 1.52 275.96-3.80L275.96-3.80L275.96-3.80Q270.40-9.12 270.40-18.56L270.40-18.56L270.40-18.56Q270.40-31.92 277.36-42.08L277.36-42.08L277.36-42.08Q282.64-49.60 292.08-52.80L292.08-52.80L292.08-52.80Q296.96-54.40 301.76-54.40L301.76-54.40L301.76-54.40Q306.56-54.40 309.52-53.76L309.52-53.76L309.52-53.76Q312.48-53.12 314.72-51.84L314.72-51.84L314.72-51.84Q319.60-49.04 319.60-44.56L319.60-44.56L319.60-44.56Q319.60-40.48 315.76-37.44L315.76-37.44L315.76-37.44Q312.24-34.72 309.36-34.72L309.36-34.72L309.36-34.72Q306.48-34.72 305.28-35.12L305.28-35.12L305.28-35.12Q305.60-38 305.60-39.88L305.60-39.88L305.60-39.88Q305.60-41.76 305.52-43.12L305.52-43.12L305.52-43.12Q305.44-44.48 305.04-45.76L305.04-45.76L305.04-45.76Q304.24-48.72 301.80-48.72L301.80-48.72L301.80-48.72Q299.36-48.72 296.92-46.44L296.92-46.44L296.92-46.44Q294.48-44.16 292.40-40.32L292.40-40.32L292.40-40.32Q287.68-31.60 287.68-21.28L287.68-21.28L287.68-21.28Q287.68-16.32 290.48-13.48L290.48-13.48L290.48-13.48Q293.28-10.64 299.28-10.64L299.28-10.64L299.28-10.64Q303.76-10.64 308-13.60L308-13.60L308-13.60Q309.84-14.88 311.20-16.56ZM323.40-2.40L323.40-2.40L323.40-2.40Q321.52-4.48 320.68-7.76L320.68-7.76L320.68-7.76Q319.84-11.04 319.84-16.40L319.84-16.40L319.84-16.40Q319.84-21.76 321.68-26.64L321.68-26.64L321.68-26.64Q323.52-31.52 326.88-35.04L326.88-35.04L326.88-35.04Q333.76-42.40 345.12-42.40L345.12-42.40L345.12-42.40Q349.20-42.40 352.16-41.04L352.16-41.04L365.84-42.40L359.92-11.20L359.92-11.20Q359.68-10.24 359.68-8.48L359.68-8.48L359.68-8.48Q359.68-6.72 360.76-5.60L360.76-5.60L360.76-5.60Q361.84-4.48 363.44-4.32L363.44-4.32L363.44-4.32Q362.64-1.60 359.72 0L359.72 0L359.72 0Q356.80 1.60 353.52 1.60L353.52 1.60L353.52 1.60Q350.24 1.60 348.04 0.36L348.04 0.36L348.04 0.36Q345.84-0.88 345.20-2.96L345.20-2.96L345.20-2.96Q343.92-0.96 341.20 0.32L341.20 0.32L341.20 0.32Q338.48 1.60 334.84 1.60L334.84 1.60L334.84 1.60Q331.20 1.60 328.24 0.64L328.24 0.64L328.24 0.64Q325.28-0.32 323.40-2.40ZM340.28-34.88L340.28-34.88L340.28-34.88Q339.36-33.44 338.56-31L338.56-31L338.56-31Q337.76-28.56 336.44-22.04L336.44-22.04L336.44-22.04Q335.12-15.52 335.12-10.88L335.12-10.88L335.12-10.88Q335.12-6.24 335.84-4.88L335.84-4.88L335.84-4.88Q336.56-3.52 337.84-3.52L337.84-3.52L337.84-3.52Q340.40-3.52 342.28-5.96L342.28-5.96L342.28-5.96Q344.16-8.40 344.88-12.72L344.88-12.72L349.12-36.16L349.12-36.16Q347.44-37.60 345.48-37.60L345.48-37.60L345.48-37.60Q343.52-37.60 342.36-36.96L342.36-36.96L342.36-36.96Q341.20-36.32 340.28-34.88ZM389.28-4.40L389.28-4.40L389.28-4.40Q386.80 1.60 378.88 1.60L378.88 1.60L378.88 1.60Q374.88 1.60 372.32-1.20L372.32-1.20L372.32-1.20Q370.24-3.52 370.24-6.16L370.24-6.16L370.24-6.16Q370.24-12.16 373.04-25.28L373.04-25.28L378.88-56L395.12-57.60L387.36-17.12L387.36-17.12Q386-11.20 386-9.12L386-9.12L386-9.12Q386-4.56 389.28-4.40ZM435.36-33.28L435.36-33.28L435.36-33.28Q435.36-29.92 432.56-27.84L432.56-27.84L432.56-27.84Q429.76-25.76 425.20-25.76L425.20-25.76L425.20-25.76Q423.28-25.76 422.16-26.32L422.16-26.32L422.16-26.32Q423.04-28.40 423.32-31L423.32-31L423.32-31Q423.60-33.60 423.60-34.32L423.60-34.32L423.60-34.32Q423.60-37.68 421.28-37.68L421.28-37.68L421.28-37.68Q419.68-37.68 417.88-35.68L417.88-35.68L417.88-35.68Q416.08-33.68 414.56-30.56L414.56-30.56L414.56-30.56Q411.20-23.36 411.20-16.08L411.20-16.08L411.20-16.08Q411.20-12.08 412.72-10.28L412.72-10.28L412.72-10.28Q414.24-8.48 417.60-8.48L417.60-8.48L417.60-8.48Q422.24-8.48 425.92-12.32L425.92-12.32L425.92-12.32Q426.96-13.52 427.52-14.88L427.52-14.88L427.52-14.88Q430.56-13.28 430.56-8.88L430.56-8.88L430.56-8.88Q430.56-4.40 425.60-1.44L425.60-1.44L425.60-1.44Q420.48 1.60 412.32 1.60L412.32 1.60L412.32 1.60Q396.08 1.60 396.08-15.60L396.08-15.60L396.08-15.60Q396.08-28.16 403.20-35.36L403.20-35.36L403.20-35.36Q410.08-42.40 422.72-42.40L422.72-42.40L422.72-42.40Q435.36-42.40 435.36-33.28ZM463.20-3.36L463.20-3.36L463.20-3.36Q459.36 1.60 449.84 1.60L449.84 1.60L449.84 1.60Q444.88 1.60 441.28-1.40L441.28-1.40L441.28-1.40Q437.68-4.40 437.68-8.72L437.68-8.72L437.68-8.72Q437.68-11.12 437.92-12.32L437.92-12.32L443.28-40.80L459.52-42.40L453.68-11.52L453.68-11.52Q453.36-9.76 453.36-8.72L453.36-8.72L453.36-8.72Q453.36-4.08 456.16-4.08L456.16-4.08L456.16-4.08Q459.28-4.08 461.52-8.32L461.52-8.32L461.52-8.32Q462.24-9.68 462.56-11.44L462.56-11.44L468.24-40.80L484-42.40L478.08-11.20L478.08-11.20Q477.84-10 477.84-8.72L477.84-8.72L477.84-8.72Q477.84-7.44 478.56-6.04L478.56-6.04L478.56-6.04Q479.28-4.64 481.60-4.32L481.60-4.32L481.60-4.32Q481.12-2.40 479.44-1.12L479.44-1.12L479.44-1.12Q475.92 1.60 472.12 1.60L472.12 1.60L472.12 1.60Q468.32 1.60 466.08 0.24L466.08 0.24L466.08 0.24Q463.84-1.12 463.20-3.36ZM507.44-4.40L507.44-4.40L507.44-4.40Q504.96 1.60 497.04 1.60L497.04 1.60L497.04 1.60Q493.04 1.60 490.48-1.20L490.48-1.20L490.48-1.20Q488.40-3.52 488.40-6.16L488.40-6.16L488.40-6.16Q488.40-12.16 491.20-25.28L491.20-25.28L497.04-56L513.28-57.60L505.52-17.12L505.52-17.12Q504.16-11.20 504.16-9.12L504.16-9.12L504.16-9.12Q504.16-4.56 507.44-4.40ZM517.72-2.40L517.72-2.40L517.72-2.40Q515.84-4.48 515-7.76L515-7.76L515-7.76Q514.16-11.04 514.16-16.40L514.16-16.40L514.16-16.40Q514.16-21.76 516-26.64L516-26.64L516-26.64Q517.84-31.52 521.20-35.04L521.20-35.04L521.20-35.04Q528.08-42.40 539.44-42.40L539.44-42.40L539.44-42.40Q543.52-42.40 546.48-41.04L546.48-41.04L560.16-42.40L554.24-11.20L554.24-11.20Q554-10.24 554-8.48L554-8.48L554-8.48Q554-6.72 555.08-5.60L555.08-5.60L555.08-5.60Q556.16-4.48 557.76-4.32L557.76-4.32L557.76-4.32Q556.96-1.60 554.04 0L554.04 0L554.04 0Q551.12 1.60 547.84 1.60L547.84 1.60L547.84 1.60Q544.56 1.60 542.36 0.36L542.36 0.36L542.36 0.36Q540.16-0.88 539.52-2.96L539.52-2.96L539.52-2.96Q538.24-0.96 535.52 0.32L535.52 0.32L535.52 0.32Q532.80 1.60 529.16 1.60L529.16 1.60L529.16 1.60Q525.52 1.60 522.56 0.64L522.56 0.64L522.56 0.64Q519.60-0.32 517.72-2.40ZM534.60-34.88L534.60-34.88L534.60-34.88Q533.68-33.44 532.88-31L532.88-31L532.88-31Q532.08-28.56 530.76-22.04L530.76-22.04L530.76-22.04Q529.44-15.52 529.44-10.88L529.44-10.88L529.44-10.88Q529.44-6.24 530.16-4.88L530.16-4.88L530.16-4.88Q530.88-3.52 532.16-3.52L532.16-3.52L532.16-3.52Q534.72-3.52 536.60-5.96L536.60-5.96L536.60-5.96Q538.48-8.40 539.20-12.72L539.20-12.72L543.44-36.16L543.44-36.16Q541.76-37.60 539.80-37.60L539.80-37.60L539.80-37.60Q537.84-37.60 536.68-36.96L536.68-36.96L536.68-36.96Q535.52-36.32 534.60-34.88ZM565.76-8L565.76-8L565.76-8Q565.76-10.16 566.88-15.60L566.88-15.60L571.12-37.20L566.40-37.20L566.72-39.60L566.72-39.60Q576.32-42.48 585.60-49.52L585.60-49.52L589.44-49.52L587.52-40.80L593.76-40.80L593.04-37.20L586.88-37.20L582.80-15.60L582.80-15.60Q581.76-10.64 581.76-8.96L581.76-8.96L581.76-8.96Q581.76-5.12 585.12-4.32L585.12-4.32L585.12-4.32Q584.32-1.60 581.44 0L581.44 0L581.44 0Q578.56 1.60 574.48 1.60L574.48 1.60L574.48 1.60Q570.40 1.60 568.08-0.96L568.08-0.96L568.08-0.96Q565.76-3.52 565.76-8ZM610.48 1.60L610.48 1.60L610.48 1.60Q592.88 1.60 592.88-14.96L592.88-14.96L592.88-14.96Q592.88-26.72 599.36-34.32L599.36-34.32L599.36-34.32Q606.24-42.40 618.16-42.40L618.16-42.40L618.16-42.40Q626.80-42.40 631.20-38.40L631.20-38.40L631.20-38.40Q635.60-34.40 635.60-26L635.60-26L635.60-26Q635.60-13.20 628.72-5.76L628.72-5.76L628.72-5.76Q622 1.60 610.48 1.60ZM612.56-33.20L612.56-33.20L612.56-33.20Q611.60-31.04 610.84-27.80L610.84-27.80L610.84-27.80Q610.08-24.56 609.12-19.44L609.12-19.44L609.12-19.44Q608.16-14.32 608.16-8L608.16-8L608.16-8Q608.16-5.92 608.84-4.56L608.84-4.56L608.84-4.56Q609.52-3.20 611.36-3.20L611.36-3.20L611.36-3.20Q613.20-3.20 614.36-4.08L614.36-4.08L614.36-4.08Q615.52-4.96 616.40-7.04L616.40-7.04L616.40-7.04Q618-10.72 619.28-17.56L619.28-17.56L619.28-17.56Q620.56-24.40 620.68-27.36L620.68-27.36L620.68-27.36Q620.80-30.32 620.80-32.52L620.80-32.52L620.80-32.52Q620.80-34.72 620.16-36.16L620.16-36.16L620.16-36.16Q619.52-37.60 617.72-37.60L617.72-37.60L617.72-37.60Q615.92-37.60 614.72-36.48L614.72-36.48L614.72-36.48Q613.52-35.36 612.56-33.20ZM665.36-22.48L665.36-22.48L665.36-22.48Q668.24-27.60 668.24-32.80L668.24-32.80L668.24-32.80Q668.24-36.24 665.76-36.24L665.76-36.24L665.76-36.24Q663.84-36.24 661.84-32.96L661.84-32.96L661.84-32.96Q659.76-29.68 659.12-25.44L659.12-25.44L654.96 0L638.40 1.60L646.56-40.80L659.76-42.40L658.32-34.32L658.32-34.32Q662.24-42.40 671.04-42.40L671.04-42.40L671.04-42.40Q675.68-42.40 678.20-40L678.20-40L678.20-40Q680.72-37.60 680.72-32.68L680.72-32.68L680.72-32.68Q680.72-27.76 677.48-24.64L677.48-24.64L677.48-24.64Q674.24-21.52 668.72-21.52L668.72-21.52L668.72-21.52Q666.32-21.52 665.36-22.48Z" fill="#000"></path></g></g><style>text {
  font-size: 64px;
  font-family: Arial Black;
  dominant-baseline: central;
  text-anchor: middle;
}</style></svg>